<?xml version="1.0" encoding="UTF-8"?>
<svg id="Layer_2" data-name="Layer 2" xmlns="http://www.w3.org/2000/svg" viewBox="0 0 1608 1903.85">
  <defs>
    <style>
      .cls-1 {
        fill: none;
        stroke: #1a1a1a;
        stroke-linecap: round;
        stroke-linejoin: round;
        stroke-width: 8px;
      }
    </style>
  </defs>
  <g id="Layer_1-2" data-name="Layer 1">
    <path class="cls-1" d="M1045.91,1129.34c-122.71,39.03-490.09,64.75-782.9-21.82-70.74-20.91-130.75-66.07-199.22-38.63-10.01,4.01-36.64,28.9-43.21,37.45-7.27,9.46-15.25,44.09-16.17,55.99-7.26,94.2,85.04,162.24,179.47,158.88-32.88-4.36-66.79-8.67-98.8,0-32.01,8.66-61.99,39.28-65.88,72.21-2.79,23.56,7.92,66.26,21.48,85.72,38.48,55.24,103.13,66.25,170.34,70.1-50.76-8.17-104.23,1.59-148.83,27.17-10.53,6.04-20.86,13.21-27.46,23.41-11.33,17.5-9.58,40.37-4.43,60.57,20.51,80.54,87.28,143.2,162.88,177.73,75.6,34.53,159.8,44.74,242.64,51.36,150.49,12.02,301.82,13.57,452.53,4.63,111.05-6.59,242.96-17.97,319.62-98.58-96.48-41.88-86.7-110.26-46.8-142.78,39.9-32.52,92.58-43.3,142.48-55.9,75.9-19.18,152.14-45.95,211.65-96.83s99.65-130.16,86.06-207.26c-12.37-70.24-67.88-128.05-133.66-155.61-65.78-27.56-90.04-36.43-160.14-23.32-40.21,7.52-57.72,52.97-20.9,70.82,14.43,7,57.38.56,96.3-.91,37.07-1.41,72.26,2.87,99.52,15.95,50.11,24.03,70.44,59.62,76.49,114.86,6.14,56.06-30.85,109.26-77.19,141.38-46.34,32.13-101.54,48.24-153.92,69.1-55.8,22.22-109.27,50.29-159.25,83.6-26.07,17.37-51.85,36.88-67.98,63.73s-20.73,62.7-3.91,89.13c12.57,19.75,35.11,31.43,58.06,36.07,85.84,17.38,173.39-68.87,162.64-155.79-10.75-86.92-109.51-149.22-194.24-127.03,79.69-12.43,163.09-45.29,197.2-116.25,13.14-27.33,16.43-49.37,2.75-76.44-18.33-36.27-64.76-48.43-105.35-46.51s-72.2,6.74-121.28,9.06c47.93,0,79.83-8.03,108.25-35.74,28.42-27.7,46.19-64.32,62.02-100.71,18.88-43.39,19.12-70.74,1.13-114.51-22.2-53.99-69.92-77.57-127.09-89.36-198.78-41.01-531.85-46.55-767.64-12.86-151.65,21.67-258.16,74.3-279.12,95.26-17.57,17.57,419.75-51.36,485.21-57.86,251.13-24.96,326.11,5.96,360.43-17.91,63.41-44.11,82.75-170.58,61.87-271.81-20.88-101.23-72.78-165.42-172.41-192.92-38.33-10.58-141.14-29.76-178.75-42.68-37.61-12.92-74.06-40-82.28-78.91-19.5-92.36,121.87-148.71,126.04-243.02,1.96-44.38-27.66-83.18-55.74-117.6,20.89,43.78,41.47,97.05,15.85,138.24-27.65,44.46-90.58,46.19-137.24,69.96-70.08,35.69-99.56,133.75-60.79,202.17,31.44,55.49,94.9,84.18,156.22,101.74,61.31,17.57,126.2,28.31,179.89,62.74,26.77,17.17,51.56,43.44,52.11,75.23.76,44.05-43.23,74.36-83.45,92.35-85.63,38.29-178.8,60.22-259.31,108.35-48.09,28.76-94.87,76.3-88.24,131.94,7.79,65.32,83.3,99.26,148.89,104.25,215.46,16.37,408.91-139.98,590.81-93.75,53.87,13.69,28.11,52.43,16.54,64.36-32.33,33.33-90.15,57.06-123.76,67.75Z"/>
  </g>
</svg>